<svg xmlns="http://www.w3.org/2000/svg" viewBox="0 0 512 512" shape-rendering="crispEdges">
  <rect width="512" height="512" fill="#000"/>
  <!-- gate frame -->
  <rect x="64" y="84" width="384" height="96" fill="none" stroke="#39ff88" stroke-width="12"/>
  <rect x="80" y="100" width="352" height="64" fill="#39ff88" fill-opacity=".12"/>
  <!-- bullets through the gate -->
  <rect x="244" y="196" width="24" height="44" fill="#fff"/>
  <rect x="172" y="216" width="20" height="36" fill="#fff" fill-opacity=".6"/>
  <rect x="320" y="216" width="20" height="36" fill="#fff" fill-opacity=".6"/>
  <!-- croc -->
  <g fill="#39ff88">
    <rect x="224" y="264" width="64" height="32"/>
    <rect x="192" y="296" width="128" height="32"/>
    <rect x="160" y="328" width="192" height="64"/>
    <rect x="128" y="392" width="256" height="48"/>
    <rect x="160" y="440" width="64" height="32"/>
    <rect x="288" y="440" width="64" height="32"/>
  </g>
  <g fill="#000">
    <rect x="192" y="328" width="32" height="32"/>
    <rect x="288" y="328" width="32" height="32"/>
  </g>
  <g fill="#ffe14a">
    <rect x="200" y="336" width="16" height="16"/>
    <rect x="296" y="336" width="16" height="16"/>
  </g>
  <g fill="#fff">
    <rect x="232" y="280" width="8" height="8"/>
    <rect x="272" y="280" width="8" height="8"/>
  </g>
</svg>
